%TF.GenerationSoftware,KiCad,Pcbnew,(6.0.9-0)*%
%TF.CreationDate,2022-12-10T19:00:01+01:00*%
%TF.ProjectId,KiCAD v6 Tutorial STM32,4b694341-4420-4763-9620-5475746f7269,rev?*%
%TF.SameCoordinates,Original*%
%TF.FileFunction,Soldermask,Top*%
%TF.FilePolarity,Negative*%
%FSLAX46Y46*%
G04 Gerber Fmt 4.6, Leading zero omitted, Abs format (unit mm)*
G04 Created by KiCad (PCBNEW (6.0.9-0)) date 2022-12-10 19:00:01*
%MOMM*%
%LPD*%
G01*
G04 APERTURE LIST*
G04 Aperture macros list*
%AMRoundRect*
0 Rectangle with rounded corners*
0 $1 Rounding radius*
0 $2 $3 $4 $5 $6 $7 $8 $9 X,Y pos of 4 corners*
0 Add a 4 corners polygon primitive as box body*
4,1,4,$2,$3,$4,$5,$6,$7,$8,$9,$2,$3,0*
0 Add four circle primitives for the rounded corners*
1,1,$1+$1,$2,$3*
1,1,$1+$1,$4,$5*
1,1,$1+$1,$6,$7*
1,1,$1+$1,$8,$9*
0 Add four rect primitives between the rounded corners*
20,1,$1+$1,$2,$3,$4,$5,0*
20,1,$1+$1,$4,$5,$6,$7,0*
20,1,$1+$1,$6,$7,$8,$9,0*
20,1,$1+$1,$8,$9,$2,$3,0*%
G04 Aperture macros list end*
%ADD10RoundRect,0.135000X-0.135000X-0.185000X0.135000X-0.185000X0.135000X0.185000X-0.135000X0.185000X0*%
%ADD11C,2.200000*%
%ADD12RoundRect,0.140000X-0.140000X-0.170000X0.140000X-0.170000X0.140000X0.170000X-0.140000X0.170000X0*%
%ADD13RoundRect,0.140000X0.140000X0.170000X-0.140000X0.170000X-0.140000X-0.170000X0.140000X-0.170000X0*%
%ADD14R,1.500000X2.000000*%
%ADD15R,3.800000X2.000000*%
%ADD16RoundRect,0.140000X0.170000X-0.140000X0.170000X0.140000X-0.170000X0.140000X-0.170000X-0.140000X0*%
%ADD17RoundRect,0.135000X0.185000X-0.135000X0.185000X0.135000X-0.185000X0.135000X-0.185000X-0.135000X0*%
%ADD18RoundRect,0.218750X-0.256250X0.218750X-0.256250X-0.218750X0.256250X-0.218750X0.256250X0.218750X0*%
%ADD19RoundRect,0.250000X0.475000X-0.250000X0.475000X0.250000X-0.475000X0.250000X-0.475000X-0.250000X0*%
%ADD20O,0.800000X0.800000*%
%ADD21R,1.300000X0.450000*%
%ADD22O,2.000000X1.450000*%
%ADD23O,1.800000X1.150000*%
%ADD24R,1.700000X1.700000*%
%ADD25O,1.700000X1.700000*%
%ADD26RoundRect,0.140000X-0.170000X0.140000X-0.170000X-0.140000X0.170000X-0.140000X0.170000X0.140000X0*%
%ADD27R,1.200000X1.400000*%
%ADD28RoundRect,0.250000X-0.250000X-0.475000X0.250000X-0.475000X0.250000X0.475000X-0.250000X0.475000X0*%
%ADD29RoundRect,0.135000X0.135000X0.185000X-0.135000X0.185000X-0.135000X-0.185000X0.135000X-0.185000X0*%
%ADD30C,0.900000*%
%ADD31R,0.800000X1.000000*%
%ADD32R,1.500000X0.700000*%
%ADD33RoundRect,0.075000X-0.662500X-0.075000X0.662500X-0.075000X0.662500X0.075000X-0.662500X0.075000X0*%
%ADD34RoundRect,0.075000X-0.075000X-0.662500X0.075000X-0.662500X0.075000X0.662500X-0.075000X0.662500X0*%
%ADD35RoundRect,0.135000X-0.185000X0.135000X-0.185000X-0.135000X0.185000X-0.135000X0.185000X0.135000X0*%
G04 APERTURE END LIST*
D10*
%TO.C,R1*%
X134215000Y-66150000D03*
X135235000Y-66150000D03*
%TD*%
D11*
%TO.C,H3*%
X127500000Y-60500000D03*
%TD*%
D12*
%TO.C,C9*%
X141920000Y-77150000D03*
X142880000Y-77150000D03*
%TD*%
D11*
%TO.C,H1*%
X162500000Y-60500000D03*
%TD*%
%TO.C,H4*%
X127500000Y-85500000D03*
%TD*%
D13*
%TO.C,C8*%
X138730000Y-77500000D03*
X137770000Y-77500000D03*
%TD*%
D14*
%TO.C,U1*%
X156050000Y-76850000D03*
D15*
X153750000Y-83150000D03*
D14*
X153750000Y-76850000D03*
X151450000Y-76850000D03*
%TD*%
D16*
%TO.C,C12*%
X137600000Y-70220000D03*
X137600000Y-69260000D03*
%TD*%
D13*
%TO.C,C5*%
X148250000Y-77250000D03*
X147290000Y-77250000D03*
%TD*%
D17*
%TO.C,R2*%
X161000000Y-76760000D03*
X161000000Y-75740000D03*
%TD*%
D18*
%TO.C,FB1*%
X140250000Y-75925000D03*
X140250000Y-77500000D03*
%TD*%
D19*
%TO.C,C11*%
X158750000Y-80200000D03*
X158750000Y-78300000D03*
%TD*%
D10*
%TO.C,R5*%
X144990000Y-79250000D03*
X146010000Y-79250000D03*
%TD*%
D20*
%TO.C,J1*%
X160745000Y-72200000D03*
X160745000Y-67200000D03*
D21*
X159645000Y-71000000D03*
X159645000Y-70350000D03*
X159645000Y-69700000D03*
X159645000Y-69050000D03*
X159645000Y-68400000D03*
D22*
X159695000Y-73425000D03*
D23*
X163495000Y-65825000D03*
X163495000Y-73575000D03*
D22*
X159695000Y-65975000D03*
%TD*%
D24*
%TO.C,J2*%
X141500000Y-59200000D03*
D25*
X138960000Y-59200000D03*
X136420000Y-59200000D03*
X133880000Y-59200000D03*
%TD*%
D26*
%TO.C,C3*%
X151250000Y-68000000D03*
X151250000Y-68960000D03*
%TD*%
D18*
%TO.C,D1*%
X161000000Y-78462500D03*
X161000000Y-80037500D03*
%TD*%
D27*
%TO.C,Y1*%
X134250000Y-69640000D03*
X134250000Y-71840000D03*
X135950000Y-71840000D03*
X135950000Y-69640000D03*
%TD*%
D16*
%TO.C,C6*%
X139100000Y-72720000D03*
X139100000Y-71760000D03*
%TD*%
D28*
%TO.C,C10*%
X152800000Y-74000000D03*
X154700000Y-74000000D03*
%TD*%
D16*
%TO.C,C2*%
X139300000Y-68280000D03*
X139300000Y-67320000D03*
%TD*%
D29*
%TO.C,R4*%
X143760000Y-79250000D03*
X142740000Y-79250000D03*
%TD*%
D24*
%TO.C,J4*%
X139600000Y-87000000D03*
D25*
X142140000Y-87000000D03*
X144680000Y-87000000D03*
X147220000Y-87000000D03*
%TD*%
D26*
%TO.C,C13*%
X137600000Y-71720000D03*
X137600000Y-72680000D03*
%TD*%
D12*
%TO.C,C4*%
X142270000Y-65000000D03*
X143230000Y-65000000D03*
%TD*%
D28*
%TO.C,C1*%
X141800000Y-63100000D03*
X143700000Y-63100000D03*
%TD*%
D24*
%TO.C,J3*%
X155750000Y-59200000D03*
D25*
X153210000Y-59200000D03*
X150670000Y-59200000D03*
X148130000Y-59200000D03*
%TD*%
D30*
%TO.C,SW1*%
X125570000Y-70100000D03*
D31*
X124470000Y-72250000D03*
X124470000Y-64950000D03*
X126680000Y-72250000D03*
D30*
X125570000Y-67100000D03*
D31*
X126680000Y-64950000D03*
D32*
X127330000Y-66350000D03*
X127330000Y-69350000D03*
X127330000Y-70850000D03*
%TD*%
D13*
%TO.C,C7*%
X138730000Y-76000000D03*
X137770000Y-76000000D03*
%TD*%
D33*
%TO.C,U2*%
X141087500Y-68250000D03*
X141087500Y-68750000D03*
X141087500Y-69250000D03*
X141087500Y-69750000D03*
X141087500Y-70250000D03*
X141087500Y-70750000D03*
X141087500Y-71250000D03*
X141087500Y-71750000D03*
X141087500Y-72250000D03*
X141087500Y-72750000D03*
X141087500Y-73250000D03*
X141087500Y-73750000D03*
D34*
X142500000Y-75162500D03*
X143000000Y-75162500D03*
X143500000Y-75162500D03*
X144000000Y-75162500D03*
X144500000Y-75162500D03*
X145000000Y-75162500D03*
X145500000Y-75162500D03*
X146000000Y-75162500D03*
X146500000Y-75162500D03*
X147000000Y-75162500D03*
X147500000Y-75162500D03*
X148000000Y-75162500D03*
D33*
X149412500Y-73750000D03*
X149412500Y-73250000D03*
X149412500Y-72750000D03*
X149412500Y-72250000D03*
X149412500Y-71750000D03*
X149412500Y-71250000D03*
X149412500Y-70750000D03*
X149412500Y-70250000D03*
X149412500Y-69750000D03*
X149412500Y-69250000D03*
X149412500Y-68750000D03*
X149412500Y-68250000D03*
D34*
X148000000Y-66837500D03*
X147500000Y-66837500D03*
X147000000Y-66837500D03*
X146500000Y-66837500D03*
X146000000Y-66837500D03*
X145500000Y-66837500D03*
X145000000Y-66837500D03*
X144500000Y-66837500D03*
X144000000Y-66837500D03*
X143500000Y-66837500D03*
X143000000Y-66837500D03*
X142500000Y-66837500D03*
%TD*%
D35*
%TO.C,R3*%
X153300000Y-68640000D03*
X153300000Y-69660000D03*
%TD*%
D11*
%TO.C,H2*%
X162500000Y-85500000D03*
%TD*%
M02*
