%TF.GenerationSoftware,KiCad,Pcbnew,(6.0.9-0)*%
%TF.CreationDate,2022-12-10T19:00:01+01:00*%
%TF.ProjectId,KiCAD v6 Tutorial STM32,4b694341-4420-4763-9620-5475746f7269,rev?*%
%TF.SameCoordinates,Original*%
%TF.FileFunction,Legend,Top*%
%TF.FilePolarity,Positive*%
%FSLAX46Y46*%
G04 Gerber Fmt 4.6, Leading zero omitted, Abs format (unit mm)*
G04 Created by KiCad (PCBNEW (6.0.9-0)) date 2022-12-10 19:00:01*
%MOMM*%
%LPD*%
G01*
G04 APERTURE LIST*
%ADD10C,0.200000*%
%ADD11C,0.150000*%
%ADD12C,0.120000*%
G04 APERTURE END LIST*
D10*
X150453571Y-62655952D02*
X150632142Y-62715476D01*
X150929761Y-62715476D01*
X151048809Y-62655952D01*
X151108333Y-62596428D01*
X151167857Y-62477380D01*
X151167857Y-62358333D01*
X151108333Y-62239285D01*
X151048809Y-62179761D01*
X150929761Y-62120238D01*
X150691666Y-62060714D01*
X150572619Y-62001190D01*
X150513095Y-61941666D01*
X150453571Y-61822619D01*
X150453571Y-61703571D01*
X150513095Y-61584523D01*
X150572619Y-61525000D01*
X150691666Y-61465476D01*
X150989285Y-61465476D01*
X151167857Y-61525000D01*
X151584523Y-61465476D02*
X151882142Y-62715476D01*
X152120238Y-61822619D01*
X152358333Y-62715476D01*
X152655952Y-61465476D01*
X153132142Y-62715476D02*
X153132142Y-61465476D01*
X153429761Y-61465476D01*
X153608333Y-61525000D01*
X153727380Y-61644047D01*
X153786904Y-61763095D01*
X153846428Y-62001190D01*
X153846428Y-62179761D01*
X153786904Y-62417857D01*
X153727380Y-62536904D01*
X153608333Y-62655952D01*
X153429761Y-62715476D01*
X153132142Y-62715476D01*
X133205952Y-61465476D02*
X133205952Y-62477380D01*
X133265476Y-62596428D01*
X133325000Y-62655952D01*
X133444047Y-62715476D01*
X133682142Y-62715476D01*
X133801190Y-62655952D01*
X133860714Y-62596428D01*
X133920238Y-62477380D01*
X133920238Y-61465476D01*
X134455952Y-62358333D02*
X135051190Y-62358333D01*
X134336904Y-62715476D02*
X134753571Y-61465476D01*
X135170238Y-62715476D01*
X136301190Y-62715476D02*
X135884523Y-62120238D01*
X135586904Y-62715476D02*
X135586904Y-61465476D01*
X136063095Y-61465476D01*
X136182142Y-61525000D01*
X136241666Y-61584523D01*
X136301190Y-61703571D01*
X136301190Y-61882142D01*
X136241666Y-62001190D01*
X136182142Y-62060714D01*
X136063095Y-62120238D01*
X135586904Y-62120238D01*
X136658333Y-61465476D02*
X137372619Y-61465476D01*
X137015476Y-62715476D02*
X137015476Y-61465476D01*
X133203571Y-87110714D02*
X133382142Y-87170238D01*
X133441666Y-87229761D01*
X133501190Y-87348809D01*
X133501190Y-87527380D01*
X133441666Y-87646428D01*
X133382142Y-87705952D01*
X133263095Y-87765476D01*
X132786904Y-87765476D01*
X132786904Y-86515476D01*
X133203571Y-86515476D01*
X133322619Y-86575000D01*
X133382142Y-86634523D01*
X133441666Y-86753571D01*
X133441666Y-86872619D01*
X133382142Y-86991666D01*
X133322619Y-87051190D01*
X133203571Y-87110714D01*
X132786904Y-87110714D01*
X134275000Y-86515476D02*
X134513095Y-86515476D01*
X134632142Y-86575000D01*
X134751190Y-86694047D01*
X134810714Y-86932142D01*
X134810714Y-87348809D01*
X134751190Y-87586904D01*
X134632142Y-87705952D01*
X134513095Y-87765476D01*
X134275000Y-87765476D01*
X134155952Y-87705952D01*
X134036904Y-87586904D01*
X133977380Y-87348809D01*
X133977380Y-86932142D01*
X134036904Y-86694047D01*
X134155952Y-86575000D01*
X134275000Y-86515476D01*
X135584523Y-86515476D02*
X135822619Y-86515476D01*
X135941666Y-86575000D01*
X136060714Y-86694047D01*
X136120238Y-86932142D01*
X136120238Y-87348809D01*
X136060714Y-87586904D01*
X135941666Y-87705952D01*
X135822619Y-87765476D01*
X135584523Y-87765476D01*
X135465476Y-87705952D01*
X135346428Y-87586904D01*
X135286904Y-87348809D01*
X135286904Y-86932142D01*
X135346428Y-86694047D01*
X135465476Y-86575000D01*
X135584523Y-86515476D01*
X136477380Y-86515476D02*
X137191666Y-86515476D01*
X136834523Y-87765476D02*
X136834523Y-86515476D01*
X157972619Y-62915476D02*
X157972619Y-63927380D01*
X158032142Y-64046428D01*
X158091666Y-64105952D01*
X158210714Y-64165476D01*
X158448809Y-64165476D01*
X158567857Y-64105952D01*
X158627380Y-64046428D01*
X158686904Y-63927380D01*
X158686904Y-62915476D01*
X159222619Y-64105952D02*
X159401190Y-64165476D01*
X159698809Y-64165476D01*
X159817857Y-64105952D01*
X159877380Y-64046428D01*
X159936904Y-63927380D01*
X159936904Y-63808333D01*
X159877380Y-63689285D01*
X159817857Y-63629761D01*
X159698809Y-63570238D01*
X159460714Y-63510714D01*
X159341666Y-63451190D01*
X159282142Y-63391666D01*
X159222619Y-63272619D01*
X159222619Y-63153571D01*
X159282142Y-63034523D01*
X159341666Y-62975000D01*
X159460714Y-62915476D01*
X159758333Y-62915476D01*
X159936904Y-62975000D01*
X160889285Y-63510714D02*
X161067857Y-63570238D01*
X161127380Y-63629761D01*
X161186904Y-63748809D01*
X161186904Y-63927380D01*
X161127380Y-64046428D01*
X161067857Y-64105952D01*
X160948809Y-64165476D01*
X160472619Y-64165476D01*
X160472619Y-62915476D01*
X160889285Y-62915476D01*
X161008333Y-62975000D01*
X161067857Y-63034523D01*
X161127380Y-63153571D01*
X161127380Y-63272619D01*
X161067857Y-63391666D01*
X161008333Y-63451190D01*
X160889285Y-63510714D01*
X160472619Y-63510714D01*
X124503571Y-74260714D02*
X124682142Y-74320238D01*
X124741666Y-74379761D01*
X124801190Y-74498809D01*
X124801190Y-74677380D01*
X124741666Y-74796428D01*
X124682142Y-74855952D01*
X124563095Y-74915476D01*
X124086904Y-74915476D01*
X124086904Y-73665476D01*
X124503571Y-73665476D01*
X124622619Y-73725000D01*
X124682142Y-73784523D01*
X124741666Y-73903571D01*
X124741666Y-74022619D01*
X124682142Y-74141666D01*
X124622619Y-74201190D01*
X124503571Y-74260714D01*
X124086904Y-74260714D01*
X125575000Y-73665476D02*
X125813095Y-73665476D01*
X125932142Y-73725000D01*
X126051190Y-73844047D01*
X126110714Y-74082142D01*
X126110714Y-74498809D01*
X126051190Y-74736904D01*
X125932142Y-74855952D01*
X125813095Y-74915476D01*
X125575000Y-74915476D01*
X125455952Y-74855952D01*
X125336904Y-74736904D01*
X125277380Y-74498809D01*
X125277380Y-74082142D01*
X125336904Y-73844047D01*
X125455952Y-73725000D01*
X125575000Y-73665476D01*
X126884523Y-73665476D02*
X127122619Y-73665476D01*
X127241666Y-73725000D01*
X127360714Y-73844047D01*
X127420238Y-74082142D01*
X127420238Y-74498809D01*
X127360714Y-74736904D01*
X127241666Y-74855952D01*
X127122619Y-74915476D01*
X126884523Y-74915476D01*
X126765476Y-74855952D01*
X126646428Y-74736904D01*
X126586904Y-74498809D01*
X126586904Y-74082142D01*
X126646428Y-73844047D01*
X126765476Y-73725000D01*
X126884523Y-73665476D01*
X127777380Y-73665476D02*
X128491666Y-73665476D01*
X128134523Y-74915476D02*
X128134523Y-73665476D01*
D11*
%TO.C,R1*%
X134583333Y-65252380D02*
X134250000Y-64776190D01*
X134011904Y-65252380D02*
X134011904Y-64252380D01*
X134392857Y-64252380D01*
X134488095Y-64300000D01*
X134535714Y-64347619D01*
X134583333Y-64442857D01*
X134583333Y-64585714D01*
X134535714Y-64680952D01*
X134488095Y-64728571D01*
X134392857Y-64776190D01*
X134011904Y-64776190D01*
X135535714Y-65252380D02*
X134964285Y-65252380D01*
X135250000Y-65252380D02*
X135250000Y-64252380D01*
X135154761Y-64395238D01*
X135059523Y-64490476D01*
X134964285Y-64538095D01*
%TO.C,C9*%
X141083333Y-79357142D02*
X141035714Y-79404761D01*
X140892857Y-79452380D01*
X140797619Y-79452380D01*
X140654761Y-79404761D01*
X140559523Y-79309523D01*
X140511904Y-79214285D01*
X140464285Y-79023809D01*
X140464285Y-78880952D01*
X140511904Y-78690476D01*
X140559523Y-78595238D01*
X140654761Y-78500000D01*
X140797619Y-78452380D01*
X140892857Y-78452380D01*
X141035714Y-78500000D01*
X141083333Y-78547619D01*
X141559523Y-79452380D02*
X141750000Y-79452380D01*
X141845238Y-79404761D01*
X141892857Y-79357142D01*
X141988095Y-79214285D01*
X142035714Y-79023809D01*
X142035714Y-78642857D01*
X141988095Y-78547619D01*
X141940476Y-78500000D01*
X141845238Y-78452380D01*
X141654761Y-78452380D01*
X141559523Y-78500000D01*
X141511904Y-78547619D01*
X141464285Y-78642857D01*
X141464285Y-78880952D01*
X141511904Y-78976190D01*
X141559523Y-79023809D01*
X141654761Y-79071428D01*
X141845238Y-79071428D01*
X141940476Y-79023809D01*
X141988095Y-78976190D01*
X142035714Y-78880952D01*
%TO.C,C8*%
X135383333Y-77857142D02*
X135335714Y-77904761D01*
X135192857Y-77952380D01*
X135097619Y-77952380D01*
X134954761Y-77904761D01*
X134859523Y-77809523D01*
X134811904Y-77714285D01*
X134764285Y-77523809D01*
X134764285Y-77380952D01*
X134811904Y-77190476D01*
X134859523Y-77095238D01*
X134954761Y-77000000D01*
X135097619Y-76952380D01*
X135192857Y-76952380D01*
X135335714Y-77000000D01*
X135383333Y-77047619D01*
X135954761Y-77380952D02*
X135859523Y-77333333D01*
X135811904Y-77285714D01*
X135764285Y-77190476D01*
X135764285Y-77142857D01*
X135811904Y-77047619D01*
X135859523Y-77000000D01*
X135954761Y-76952380D01*
X136145238Y-76952380D01*
X136240476Y-77000000D01*
X136288095Y-77047619D01*
X136335714Y-77142857D01*
X136335714Y-77190476D01*
X136288095Y-77285714D01*
X136240476Y-77333333D01*
X136145238Y-77380952D01*
X135954761Y-77380952D01*
X135859523Y-77428571D01*
X135811904Y-77476190D01*
X135764285Y-77571428D01*
X135764285Y-77761904D01*
X135811904Y-77857142D01*
X135859523Y-77904761D01*
X135954761Y-77952380D01*
X136145238Y-77952380D01*
X136240476Y-77904761D01*
X136288095Y-77857142D01*
X136335714Y-77761904D01*
X136335714Y-77571428D01*
X136288095Y-77476190D01*
X136240476Y-77428571D01*
X136145238Y-77380952D01*
%TO.C,U1*%
X153138095Y-84752380D02*
X153138095Y-85561904D01*
X153185714Y-85657142D01*
X153233333Y-85704761D01*
X153328571Y-85752380D01*
X153519047Y-85752380D01*
X153614285Y-85704761D01*
X153661904Y-85657142D01*
X153709523Y-85561904D01*
X153709523Y-84752380D01*
X154709523Y-85752380D02*
X154138095Y-85752380D01*
X154423809Y-85752380D02*
X154423809Y-84752380D01*
X154328571Y-84895238D01*
X154233333Y-84990476D01*
X154138095Y-85038095D01*
%TO.C,C12*%
X134657142Y-68157142D02*
X134609523Y-68204761D01*
X134466666Y-68252380D01*
X134371428Y-68252380D01*
X134228571Y-68204761D01*
X134133333Y-68109523D01*
X134085714Y-68014285D01*
X134038095Y-67823809D01*
X134038095Y-67680952D01*
X134085714Y-67490476D01*
X134133333Y-67395238D01*
X134228571Y-67300000D01*
X134371428Y-67252380D01*
X134466666Y-67252380D01*
X134609523Y-67300000D01*
X134657142Y-67347619D01*
X135609523Y-68252380D02*
X135038095Y-68252380D01*
X135323809Y-68252380D02*
X135323809Y-67252380D01*
X135228571Y-67395238D01*
X135133333Y-67490476D01*
X135038095Y-67538095D01*
X135990476Y-67347619D02*
X136038095Y-67300000D01*
X136133333Y-67252380D01*
X136371428Y-67252380D01*
X136466666Y-67300000D01*
X136514285Y-67347619D01*
X136561904Y-67442857D01*
X136561904Y-67538095D01*
X136514285Y-67680952D01*
X135942857Y-68252380D01*
X136561904Y-68252380D01*
%TO.C,C5*%
X147533333Y-79057142D02*
X147485714Y-79104761D01*
X147342857Y-79152380D01*
X147247619Y-79152380D01*
X147104761Y-79104761D01*
X147009523Y-79009523D01*
X146961904Y-78914285D01*
X146914285Y-78723809D01*
X146914285Y-78580952D01*
X146961904Y-78390476D01*
X147009523Y-78295238D01*
X147104761Y-78200000D01*
X147247619Y-78152380D01*
X147342857Y-78152380D01*
X147485714Y-78200000D01*
X147533333Y-78247619D01*
X148438095Y-78152380D02*
X147961904Y-78152380D01*
X147914285Y-78628571D01*
X147961904Y-78580952D01*
X148057142Y-78533333D01*
X148295238Y-78533333D01*
X148390476Y-78580952D01*
X148438095Y-78628571D01*
X148485714Y-78723809D01*
X148485714Y-78961904D01*
X148438095Y-79057142D01*
X148390476Y-79104761D01*
X148295238Y-79152380D01*
X148057142Y-79152380D01*
X147961904Y-79104761D01*
X147914285Y-79057142D01*
%TO.C,R2*%
X162483333Y-76752380D02*
X162150000Y-76276190D01*
X161911904Y-76752380D02*
X161911904Y-75752380D01*
X162292857Y-75752380D01*
X162388095Y-75800000D01*
X162435714Y-75847619D01*
X162483333Y-75942857D01*
X162483333Y-76085714D01*
X162435714Y-76180952D01*
X162388095Y-76228571D01*
X162292857Y-76276190D01*
X161911904Y-76276190D01*
X162864285Y-75847619D02*
X162911904Y-75800000D01*
X163007142Y-75752380D01*
X163245238Y-75752380D01*
X163340476Y-75800000D01*
X163388095Y-75847619D01*
X163435714Y-75942857D01*
X163435714Y-76038095D01*
X163388095Y-76180952D01*
X162816666Y-76752380D01*
X163435714Y-76752380D01*
%TO.C,FB1*%
X138016666Y-78928571D02*
X137683333Y-78928571D01*
X137683333Y-79452380D02*
X137683333Y-78452380D01*
X138159523Y-78452380D01*
X138873809Y-78928571D02*
X139016666Y-78976190D01*
X139064285Y-79023809D01*
X139111904Y-79119047D01*
X139111904Y-79261904D01*
X139064285Y-79357142D01*
X139016666Y-79404761D01*
X138921428Y-79452380D01*
X138540476Y-79452380D01*
X138540476Y-78452380D01*
X138873809Y-78452380D01*
X138969047Y-78500000D01*
X139016666Y-78547619D01*
X139064285Y-78642857D01*
X139064285Y-78738095D01*
X139016666Y-78833333D01*
X138969047Y-78880952D01*
X138873809Y-78928571D01*
X138540476Y-78928571D01*
X140064285Y-79452380D02*
X139492857Y-79452380D01*
X139778571Y-79452380D02*
X139778571Y-78452380D01*
X139683333Y-78595238D01*
X139588095Y-78690476D01*
X139492857Y-78738095D01*
%TO.C,C11*%
X158207142Y-82207142D02*
X158159523Y-82254761D01*
X158016666Y-82302380D01*
X157921428Y-82302380D01*
X157778571Y-82254761D01*
X157683333Y-82159523D01*
X157635714Y-82064285D01*
X157588095Y-81873809D01*
X157588095Y-81730952D01*
X157635714Y-81540476D01*
X157683333Y-81445238D01*
X157778571Y-81350000D01*
X157921428Y-81302380D01*
X158016666Y-81302380D01*
X158159523Y-81350000D01*
X158207142Y-81397619D01*
X159159523Y-82302380D02*
X158588095Y-82302380D01*
X158873809Y-82302380D02*
X158873809Y-81302380D01*
X158778571Y-81445238D01*
X158683333Y-81540476D01*
X158588095Y-81588095D01*
X160111904Y-82302380D02*
X159540476Y-82302380D01*
X159826190Y-82302380D02*
X159826190Y-81302380D01*
X159730952Y-81445238D01*
X159635714Y-81540476D01*
X159540476Y-81588095D01*
%TO.C,R5*%
X147083333Y-82202380D02*
X146750000Y-81726190D01*
X146511904Y-82202380D02*
X146511904Y-81202380D01*
X146892857Y-81202380D01*
X146988095Y-81250000D01*
X147035714Y-81297619D01*
X147083333Y-81392857D01*
X147083333Y-81535714D01*
X147035714Y-81630952D01*
X146988095Y-81678571D01*
X146892857Y-81726190D01*
X146511904Y-81726190D01*
X147988095Y-81202380D02*
X147511904Y-81202380D01*
X147464285Y-81678571D01*
X147511904Y-81630952D01*
X147607142Y-81583333D01*
X147845238Y-81583333D01*
X147940476Y-81630952D01*
X147988095Y-81678571D01*
X148035714Y-81773809D01*
X148035714Y-82011904D01*
X147988095Y-82107142D01*
X147940476Y-82154761D01*
X147845238Y-82202380D01*
X147607142Y-82202380D01*
X147511904Y-82154761D01*
X147464285Y-82107142D01*
%TO.C,C3*%
X151233333Y-67057142D02*
X151185714Y-67104761D01*
X151042857Y-67152380D01*
X150947619Y-67152380D01*
X150804761Y-67104761D01*
X150709523Y-67009523D01*
X150661904Y-66914285D01*
X150614285Y-66723809D01*
X150614285Y-66580952D01*
X150661904Y-66390476D01*
X150709523Y-66295238D01*
X150804761Y-66200000D01*
X150947619Y-66152380D01*
X151042857Y-66152380D01*
X151185714Y-66200000D01*
X151233333Y-66247619D01*
X151566666Y-66152380D02*
X152185714Y-66152380D01*
X151852380Y-66533333D01*
X151995238Y-66533333D01*
X152090476Y-66580952D01*
X152138095Y-66628571D01*
X152185714Y-66723809D01*
X152185714Y-66961904D01*
X152138095Y-67057142D01*
X152090476Y-67104761D01*
X151995238Y-67152380D01*
X151709523Y-67152380D01*
X151614285Y-67104761D01*
X151566666Y-67057142D01*
%TO.C,D1*%
X162061904Y-79602380D02*
X162061904Y-78602380D01*
X162300000Y-78602380D01*
X162442857Y-78650000D01*
X162538095Y-78745238D01*
X162585714Y-78840476D01*
X162633333Y-79030952D01*
X162633333Y-79173809D01*
X162585714Y-79364285D01*
X162538095Y-79459523D01*
X162442857Y-79554761D01*
X162300000Y-79602380D01*
X162061904Y-79602380D01*
X163585714Y-79602380D02*
X163014285Y-79602380D01*
X163300000Y-79602380D02*
X163300000Y-78602380D01*
X163204761Y-78745238D01*
X163109523Y-78840476D01*
X163014285Y-78888095D01*
%TO.C,Y1*%
X132073809Y-69726190D02*
X132073809Y-70202380D01*
X131740476Y-69202380D02*
X132073809Y-69726190D01*
X132407142Y-69202380D01*
X133264285Y-70202380D02*
X132692857Y-70202380D01*
X132978571Y-70202380D02*
X132978571Y-69202380D01*
X132883333Y-69345238D01*
X132788095Y-69440476D01*
X132692857Y-69488095D01*
%TO.C,C6*%
X139457142Y-74406666D02*
X139504761Y-74454285D01*
X139552380Y-74597142D01*
X139552380Y-74692380D01*
X139504761Y-74835238D01*
X139409523Y-74930476D01*
X139314285Y-74978095D01*
X139123809Y-75025714D01*
X138980952Y-75025714D01*
X138790476Y-74978095D01*
X138695238Y-74930476D01*
X138600000Y-74835238D01*
X138552380Y-74692380D01*
X138552380Y-74597142D01*
X138600000Y-74454285D01*
X138647619Y-74406666D01*
X138552380Y-73549523D02*
X138552380Y-73740000D01*
X138600000Y-73835238D01*
X138647619Y-73882857D01*
X138790476Y-73978095D01*
X138980952Y-74025714D01*
X139361904Y-74025714D01*
X139457142Y-73978095D01*
X139504761Y-73930476D01*
X139552380Y-73835238D01*
X139552380Y-73644761D01*
X139504761Y-73549523D01*
X139457142Y-73501904D01*
X139361904Y-73454285D01*
X139123809Y-73454285D01*
X139028571Y-73501904D01*
X138980952Y-73549523D01*
X138933333Y-73644761D01*
X138933333Y-73835238D01*
X138980952Y-73930476D01*
X139028571Y-73978095D01*
X139123809Y-74025714D01*
%TO.C,C10*%
X153057142Y-72557142D02*
X153009523Y-72604761D01*
X152866666Y-72652380D01*
X152771428Y-72652380D01*
X152628571Y-72604761D01*
X152533333Y-72509523D01*
X152485714Y-72414285D01*
X152438095Y-72223809D01*
X152438095Y-72080952D01*
X152485714Y-71890476D01*
X152533333Y-71795238D01*
X152628571Y-71700000D01*
X152771428Y-71652380D01*
X152866666Y-71652380D01*
X153009523Y-71700000D01*
X153057142Y-71747619D01*
X154009523Y-72652380D02*
X153438095Y-72652380D01*
X153723809Y-72652380D02*
X153723809Y-71652380D01*
X153628571Y-71795238D01*
X153533333Y-71890476D01*
X153438095Y-71938095D01*
X154628571Y-71652380D02*
X154723809Y-71652380D01*
X154819047Y-71700000D01*
X154866666Y-71747619D01*
X154914285Y-71842857D01*
X154961904Y-72033333D01*
X154961904Y-72271428D01*
X154914285Y-72461904D01*
X154866666Y-72557142D01*
X154819047Y-72604761D01*
X154723809Y-72652380D01*
X154628571Y-72652380D01*
X154533333Y-72604761D01*
X154485714Y-72557142D01*
X154438095Y-72461904D01*
X154390476Y-72271428D01*
X154390476Y-72033333D01*
X154438095Y-71842857D01*
X154485714Y-71747619D01*
X154533333Y-71700000D01*
X154628571Y-71652380D01*
%TO.C,C2*%
X137633333Y-67677142D02*
X137585714Y-67724761D01*
X137442857Y-67772380D01*
X137347619Y-67772380D01*
X137204761Y-67724761D01*
X137109523Y-67629523D01*
X137061904Y-67534285D01*
X137014285Y-67343809D01*
X137014285Y-67200952D01*
X137061904Y-67010476D01*
X137109523Y-66915238D01*
X137204761Y-66820000D01*
X137347619Y-66772380D01*
X137442857Y-66772380D01*
X137585714Y-66820000D01*
X137633333Y-66867619D01*
X138014285Y-66867619D02*
X138061904Y-66820000D01*
X138157142Y-66772380D01*
X138395238Y-66772380D01*
X138490476Y-66820000D01*
X138538095Y-66867619D01*
X138585714Y-66962857D01*
X138585714Y-67058095D01*
X138538095Y-67200952D01*
X137966666Y-67772380D01*
X138585714Y-67772380D01*
%TO.C,R4*%
X143383333Y-81252380D02*
X143050000Y-80776190D01*
X142811904Y-81252380D02*
X142811904Y-80252380D01*
X143192857Y-80252380D01*
X143288095Y-80300000D01*
X143335714Y-80347619D01*
X143383333Y-80442857D01*
X143383333Y-80585714D01*
X143335714Y-80680952D01*
X143288095Y-80728571D01*
X143192857Y-80776190D01*
X142811904Y-80776190D01*
X144240476Y-80585714D02*
X144240476Y-81252380D01*
X144002380Y-80204761D02*
X143764285Y-80919047D01*
X144383333Y-80919047D01*
%TO.C,C13*%
X134957142Y-74097142D02*
X134909523Y-74144761D01*
X134766666Y-74192380D01*
X134671428Y-74192380D01*
X134528571Y-74144761D01*
X134433333Y-74049523D01*
X134385714Y-73954285D01*
X134338095Y-73763809D01*
X134338095Y-73620952D01*
X134385714Y-73430476D01*
X134433333Y-73335238D01*
X134528571Y-73240000D01*
X134671428Y-73192380D01*
X134766666Y-73192380D01*
X134909523Y-73240000D01*
X134957142Y-73287619D01*
X135909523Y-74192380D02*
X135338095Y-74192380D01*
X135623809Y-74192380D02*
X135623809Y-73192380D01*
X135528571Y-73335238D01*
X135433333Y-73430476D01*
X135338095Y-73478095D01*
X136242857Y-73192380D02*
X136861904Y-73192380D01*
X136528571Y-73573333D01*
X136671428Y-73573333D01*
X136766666Y-73620952D01*
X136814285Y-73668571D01*
X136861904Y-73763809D01*
X136861904Y-74001904D01*
X136814285Y-74097142D01*
X136766666Y-74144761D01*
X136671428Y-74192380D01*
X136385714Y-74192380D01*
X136290476Y-74144761D01*
X136242857Y-74097142D01*
%TO.C,C4*%
X144633333Y-65357142D02*
X144585714Y-65404761D01*
X144442857Y-65452380D01*
X144347619Y-65452380D01*
X144204761Y-65404761D01*
X144109523Y-65309523D01*
X144061904Y-65214285D01*
X144014285Y-65023809D01*
X144014285Y-64880952D01*
X144061904Y-64690476D01*
X144109523Y-64595238D01*
X144204761Y-64500000D01*
X144347619Y-64452380D01*
X144442857Y-64452380D01*
X144585714Y-64500000D01*
X144633333Y-64547619D01*
X145490476Y-64785714D02*
X145490476Y-65452380D01*
X145252380Y-64404761D02*
X145014285Y-65119047D01*
X145633333Y-65119047D01*
%TO.C,C1*%
X145383333Y-63457142D02*
X145335714Y-63504761D01*
X145192857Y-63552380D01*
X145097619Y-63552380D01*
X144954761Y-63504761D01*
X144859523Y-63409523D01*
X144811904Y-63314285D01*
X144764285Y-63123809D01*
X144764285Y-62980952D01*
X144811904Y-62790476D01*
X144859523Y-62695238D01*
X144954761Y-62600000D01*
X145097619Y-62552380D01*
X145192857Y-62552380D01*
X145335714Y-62600000D01*
X145383333Y-62647619D01*
X146335714Y-63552380D02*
X145764285Y-63552380D01*
X146050000Y-63552380D02*
X146050000Y-62552380D01*
X145954761Y-62695238D01*
X145859523Y-62790476D01*
X145764285Y-62838095D01*
%TO.C,C7*%
X135433333Y-76357142D02*
X135385714Y-76404761D01*
X135242857Y-76452380D01*
X135147619Y-76452380D01*
X135004761Y-76404761D01*
X134909523Y-76309523D01*
X134861904Y-76214285D01*
X134814285Y-76023809D01*
X134814285Y-75880952D01*
X134861904Y-75690476D01*
X134909523Y-75595238D01*
X135004761Y-75500000D01*
X135147619Y-75452380D01*
X135242857Y-75452380D01*
X135385714Y-75500000D01*
X135433333Y-75547619D01*
X135766666Y-75452380D02*
X136433333Y-75452380D01*
X136004761Y-76452380D01*
%TO.C,U2*%
X145388095Y-68802380D02*
X145388095Y-69611904D01*
X145435714Y-69707142D01*
X145483333Y-69754761D01*
X145578571Y-69802380D01*
X145769047Y-69802380D01*
X145864285Y-69754761D01*
X145911904Y-69707142D01*
X145959523Y-69611904D01*
X145959523Y-68802380D01*
X146388095Y-68897619D02*
X146435714Y-68850000D01*
X146530952Y-68802380D01*
X146769047Y-68802380D01*
X146864285Y-68850000D01*
X146911904Y-68897619D01*
X146959523Y-68992857D01*
X146959523Y-69088095D01*
X146911904Y-69230952D01*
X146340476Y-69802380D01*
X146959523Y-69802380D01*
%TO.C,R3*%
X154833333Y-69102380D02*
X154500000Y-68626190D01*
X154261904Y-69102380D02*
X154261904Y-68102380D01*
X154642857Y-68102380D01*
X154738095Y-68150000D01*
X154785714Y-68197619D01*
X154833333Y-68292857D01*
X154833333Y-68435714D01*
X154785714Y-68530952D01*
X154738095Y-68578571D01*
X154642857Y-68626190D01*
X154261904Y-68626190D01*
X155166666Y-68102380D02*
X155785714Y-68102380D01*
X155452380Y-68483333D01*
X155595238Y-68483333D01*
X155690476Y-68530952D01*
X155738095Y-68578571D01*
X155785714Y-68673809D01*
X155785714Y-68911904D01*
X155738095Y-69007142D01*
X155690476Y-69054761D01*
X155595238Y-69102380D01*
X155309523Y-69102380D01*
X155214285Y-69054761D01*
X155166666Y-69007142D01*
D12*
%TO.C,R1*%
X134571359Y-65770000D02*
X134878641Y-65770000D01*
X134571359Y-66530000D02*
X134878641Y-66530000D01*
%TO.C,C9*%
X142292164Y-76790000D02*
X142507836Y-76790000D01*
X142292164Y-77510000D02*
X142507836Y-77510000D01*
%TO.C,C8*%
X138357836Y-77860000D02*
X138142164Y-77860000D01*
X138357836Y-77140000D02*
X138142164Y-77140000D01*
%TO.C,U1*%
X150340000Y-78150000D02*
X150340000Y-81910000D01*
X157160000Y-81910000D02*
X155900000Y-81910000D01*
X150340000Y-81910000D02*
X151600000Y-81910000D01*
X157160000Y-75900000D02*
X157160000Y-81910000D01*
%TO.C,C12*%
X137240000Y-69847836D02*
X137240000Y-69632164D01*
X137960000Y-69847836D02*
X137960000Y-69632164D01*
%TO.C,C5*%
X147877836Y-77610000D02*
X147662164Y-77610000D01*
X147877836Y-76890000D02*
X147662164Y-76890000D01*
%TO.C,R2*%
X160620000Y-76403641D02*
X160620000Y-76096359D01*
X161380000Y-76403641D02*
X161380000Y-76096359D01*
%TO.C,FB1*%
X140760000Y-76549721D02*
X140760000Y-76875279D01*
X139740000Y-76549721D02*
X139740000Y-76875279D01*
%TO.C,C11*%
X158015000Y-79511252D02*
X158015000Y-78988748D01*
X159485000Y-79511252D02*
X159485000Y-78988748D01*
%TO.C,R5*%
X145346359Y-79630000D02*
X145653641Y-79630000D01*
X145346359Y-78870000D02*
X145653641Y-78870000D01*
D11*
%TO.C,J1*%
X159145000Y-71500000D02*
X159145000Y-72500000D01*
X158720000Y-71500000D02*
X159145000Y-71500000D01*
X164845000Y-73850000D02*
X164845000Y-73550000D01*
X160895000Y-73850000D02*
X162295000Y-73850000D01*
X158720000Y-70775000D02*
X158720000Y-71500000D01*
X162295000Y-65550000D02*
X160895000Y-65550000D01*
X165295000Y-65850000D02*
X164845000Y-65850000D01*
X164845000Y-65850000D02*
X164845000Y-65550000D01*
X159145000Y-67900000D02*
X159145000Y-66900000D01*
X164695000Y-73850000D02*
X164845000Y-73850000D01*
X164845000Y-73550000D02*
X165295000Y-73550000D01*
X164845000Y-65550000D02*
X164695000Y-65550000D01*
D12*
%TO.C,J2*%
X140230000Y-60530000D02*
X132550000Y-60530000D01*
X140230000Y-57870000D02*
X132550000Y-57870000D01*
X140230000Y-57870000D02*
X140230000Y-60530000D01*
X132550000Y-57870000D02*
X132550000Y-60530000D01*
X142830000Y-57870000D02*
X142830000Y-59200000D01*
X141500000Y-57870000D02*
X142830000Y-57870000D01*
%TO.C,C3*%
X151610000Y-68372164D02*
X151610000Y-68587836D01*
X150890000Y-68372164D02*
X150890000Y-68587836D01*
%TO.C,D1*%
X161735000Y-77765000D02*
X160265000Y-77765000D01*
X160265000Y-77765000D02*
X160265000Y-80050000D01*
X161735000Y-80050000D02*
X161735000Y-77765000D01*
%TO.C,Y1*%
X133450000Y-68740000D02*
X133450000Y-72740000D01*
X136750000Y-68740000D02*
X133450000Y-68740000D01*
%TO.C,C6*%
X138740000Y-72347836D02*
X138740000Y-72132164D01*
X139460000Y-72347836D02*
X139460000Y-72132164D01*
%TO.C,C10*%
X153488748Y-73265000D02*
X154011252Y-73265000D01*
X153488748Y-74735000D02*
X154011252Y-74735000D01*
%TO.C,C2*%
X139660000Y-67907836D02*
X139660000Y-67692164D01*
X138940000Y-67907836D02*
X138940000Y-67692164D01*
%TO.C,R4*%
X143403641Y-78870000D02*
X143096359Y-78870000D01*
X143403641Y-79630000D02*
X143096359Y-79630000D01*
%TO.C,J4*%
X148550000Y-88330000D02*
X148550000Y-85670000D01*
X139600000Y-88330000D02*
X138270000Y-88330000D01*
X138270000Y-88330000D02*
X138270000Y-87000000D01*
X140870000Y-88330000D02*
X148550000Y-88330000D01*
X140870000Y-88330000D02*
X140870000Y-85670000D01*
X140870000Y-85670000D02*
X148550000Y-85670000D01*
%TO.C,C13*%
X137240000Y-72092164D02*
X137240000Y-72307836D01*
X137960000Y-72092164D02*
X137960000Y-72307836D01*
%TO.C,C4*%
X142642164Y-65360000D02*
X142857836Y-65360000D01*
X142642164Y-64640000D02*
X142857836Y-64640000D01*
%TO.C,C1*%
X142488748Y-63835000D02*
X143011252Y-63835000D01*
X142488748Y-62365000D02*
X143011252Y-62365000D01*
%TO.C,J3*%
X146800000Y-57870000D02*
X146800000Y-60530000D01*
X155750000Y-57870000D02*
X157080000Y-57870000D01*
X157080000Y-57870000D02*
X157080000Y-59200000D01*
X154480000Y-57870000D02*
X146800000Y-57870000D01*
X154480000Y-57870000D02*
X154480000Y-60530000D01*
X154480000Y-60530000D02*
X146800000Y-60530000D01*
%TO.C,SW1*%
X124170000Y-65750000D02*
X124170000Y-71450000D01*
X125970000Y-65150000D02*
X125180000Y-65150000D01*
X127020000Y-70000000D02*
X127020000Y-70200000D01*
X125180000Y-72050000D02*
X125970000Y-72050000D01*
X127020000Y-67000000D02*
X127020000Y-68700000D01*
%TO.C,C7*%
X138357836Y-75640000D02*
X138142164Y-75640000D01*
X138357836Y-76360000D02*
X138142164Y-76360000D01*
%TO.C,U2*%
X148410000Y-67390000D02*
X148860000Y-67390000D01*
X148410000Y-74610000D02*
X148860000Y-74610000D01*
X148860000Y-74610000D02*
X148860000Y-74160000D01*
X142090000Y-67390000D02*
X141640000Y-67390000D01*
X141640000Y-67840000D02*
X140350000Y-67840000D01*
X141640000Y-74610000D02*
X141640000Y-74160000D01*
X148860000Y-67390000D02*
X148860000Y-67840000D01*
X141640000Y-67390000D02*
X141640000Y-67840000D01*
X142090000Y-74610000D02*
X141640000Y-74610000D01*
%TO.C,R3*%
X152920000Y-68996359D02*
X152920000Y-69303641D01*
X153680000Y-68996359D02*
X153680000Y-69303641D01*
%TD*%
M02*
