%TF.GenerationSoftware,KiCad,Pcbnew,(6.0.9-0)*%
%TF.CreationDate,2022-12-10T19:00:01+01:00*%
%TF.ProjectId,KiCAD v6 Tutorial STM32,4b694341-4420-4763-9620-5475746f7269,rev?*%
%TF.SameCoordinates,Original*%
%TF.FileFunction,Copper,L1,Top*%
%TF.FilePolarity,Positive*%
%FSLAX46Y46*%
G04 Gerber Fmt 4.6, Leading zero omitted, Abs format (unit mm)*
G04 Created by KiCad (PCBNEW (6.0.9-0)) date 2022-12-10 19:00:01*
%MOMM*%
%LPD*%
G01*
G04 APERTURE LIST*
G04 Aperture macros list*
%AMRoundRect*
0 Rectangle with rounded corners*
0 $1 Rounding radius*
0 $2 $3 $4 $5 $6 $7 $8 $9 X,Y pos of 4 corners*
0 Add a 4 corners polygon primitive as box body*
4,1,4,$2,$3,$4,$5,$6,$7,$8,$9,$2,$3,0*
0 Add four circle primitives for the rounded corners*
1,1,$1+$1,$2,$3*
1,1,$1+$1,$4,$5*
1,1,$1+$1,$6,$7*
1,1,$1+$1,$8,$9*
0 Add four rect primitives between the rounded corners*
20,1,$1+$1,$2,$3,$4,$5,0*
20,1,$1+$1,$4,$5,$6,$7,0*
20,1,$1+$1,$6,$7,$8,$9,0*
20,1,$1+$1,$8,$9,$2,$3,0*%
G04 Aperture macros list end*
%TA.AperFunction,SMDPad,CuDef*%
%ADD10RoundRect,0.135000X-0.135000X-0.185000X0.135000X-0.185000X0.135000X0.185000X-0.135000X0.185000X0*%
%TD*%
%TA.AperFunction,SMDPad,CuDef*%
%ADD11RoundRect,0.140000X-0.140000X-0.170000X0.140000X-0.170000X0.140000X0.170000X-0.140000X0.170000X0*%
%TD*%
%TA.AperFunction,SMDPad,CuDef*%
%ADD12RoundRect,0.140000X0.140000X0.170000X-0.140000X0.170000X-0.140000X-0.170000X0.140000X-0.170000X0*%
%TD*%
%TA.AperFunction,SMDPad,CuDef*%
%ADD13R,1.500000X2.000000*%
%TD*%
%TA.AperFunction,SMDPad,CuDef*%
%ADD14R,3.800000X2.000000*%
%TD*%
%TA.AperFunction,SMDPad,CuDef*%
%ADD15RoundRect,0.140000X0.170000X-0.140000X0.170000X0.140000X-0.170000X0.140000X-0.170000X-0.140000X0*%
%TD*%
%TA.AperFunction,SMDPad,CuDef*%
%ADD16RoundRect,0.135000X0.185000X-0.135000X0.185000X0.135000X-0.185000X0.135000X-0.185000X-0.135000X0*%
%TD*%
%TA.AperFunction,SMDPad,CuDef*%
%ADD17RoundRect,0.218750X-0.256250X0.218750X-0.256250X-0.218750X0.256250X-0.218750X0.256250X0.218750X0*%
%TD*%
%TA.AperFunction,SMDPad,CuDef*%
%ADD18RoundRect,0.250000X0.475000X-0.250000X0.475000X0.250000X-0.475000X0.250000X-0.475000X-0.250000X0*%
%TD*%
%TA.AperFunction,SMDPad,CuDef*%
%ADD19R,1.300000X0.450000*%
%TD*%
%TA.AperFunction,ComponentPad*%
%ADD20O,2.000000X1.450000*%
%TD*%
%TA.AperFunction,ComponentPad*%
%ADD21O,1.800000X1.150000*%
%TD*%
%TA.AperFunction,ComponentPad*%
%ADD22R,1.700000X1.700000*%
%TD*%
%TA.AperFunction,ComponentPad*%
%ADD23O,1.700000X1.700000*%
%TD*%
%TA.AperFunction,SMDPad,CuDef*%
%ADD24RoundRect,0.140000X-0.170000X0.140000X-0.170000X-0.140000X0.170000X-0.140000X0.170000X0.140000X0*%
%TD*%
%TA.AperFunction,SMDPad,CuDef*%
%ADD25R,1.200000X1.400000*%
%TD*%
%TA.AperFunction,SMDPad,CuDef*%
%ADD26RoundRect,0.250000X-0.250000X-0.475000X0.250000X-0.475000X0.250000X0.475000X-0.250000X0.475000X0*%
%TD*%
%TA.AperFunction,SMDPad,CuDef*%
%ADD27RoundRect,0.135000X0.135000X0.185000X-0.135000X0.185000X-0.135000X-0.185000X0.135000X-0.185000X0*%
%TD*%
%TA.AperFunction,SMDPad,CuDef*%
%ADD28R,0.800000X1.000000*%
%TD*%
%TA.AperFunction,SMDPad,CuDef*%
%ADD29R,1.500000X0.700000*%
%TD*%
%TA.AperFunction,SMDPad,CuDef*%
%ADD30RoundRect,0.075000X-0.662500X-0.075000X0.662500X-0.075000X0.662500X0.075000X-0.662500X0.075000X0*%
%TD*%
%TA.AperFunction,SMDPad,CuDef*%
%ADD31RoundRect,0.075000X-0.075000X-0.662500X0.075000X-0.662500X0.075000X0.662500X-0.075000X0.662500X0*%
%TD*%
%TA.AperFunction,SMDPad,CuDef*%
%ADD32RoundRect,0.135000X-0.185000X0.135000X-0.185000X-0.135000X0.185000X-0.135000X0.185000X0.135000X0*%
%TD*%
%TA.AperFunction,ViaPad*%
%ADD33C,0.700000*%
%TD*%
%TA.AperFunction,Conductor*%
%ADD34C,0.300000*%
%TD*%
%TA.AperFunction,Conductor*%
%ADD35C,0.500000*%
%TD*%
%TA.AperFunction,Conductor*%
%ADD36C,0.200000*%
%TD*%
G04 APERTURE END LIST*
D10*
%TO.P,R1,1*%
%TO.N,/Boot0SW*%
X134215000Y-66150000D03*
%TO.P,R1,2*%
%TO.N,/Boot0*%
X135235000Y-66150000D03*
%TD*%
D11*
%TO.P,C9,1*%
%TO.N,/nRST*%
X141920000Y-77150000D03*
%TO.P,C9,2*%
%TO.N,GND*%
X142880000Y-77150000D03*
%TD*%
D12*
%TO.P,C8,1*%
%TO.N,+3.3V*%
X138730000Y-77500000D03*
%TO.P,C8,2*%
%TO.N,GND*%
X137770000Y-77500000D03*
%TD*%
D13*
%TO.P,U1,1,GND*%
%TO.N,GND*%
X156050000Y-76850000D03*
D14*
%TO.P,U1,2,VO*%
%TO.N,+3.3V*%
X153750000Y-83150000D03*
D13*
X153750000Y-76850000D03*
%TO.P,U1,3,VI*%
%TO.N,VBUS*%
X151450000Y-76850000D03*
%TD*%
D15*
%TO.P,C12,1*%
%TO.N,/HSE_IN*%
X137600000Y-70220000D03*
%TO.P,C12,2*%
%TO.N,GND*%
X137600000Y-69260000D03*
%TD*%
D12*
%TO.P,C5,1*%
%TO.N,+3.3V*%
X148250000Y-77250000D03*
%TO.P,C5,2*%
%TO.N,GND*%
X147290000Y-77250000D03*
%TD*%
D16*
%TO.P,R2,1*%
%TO.N,/PWR_LED_K*%
X161000000Y-76760000D03*
%TO.P,R2,2*%
%TO.N,GND*%
X161000000Y-75740000D03*
%TD*%
D17*
%TO.P,FB1,1*%
%TO.N,+3.3VA*%
X140250000Y-75925000D03*
%TO.P,FB1,2*%
%TO.N,+3.3V*%
X140250000Y-77500000D03*
%TD*%
D18*
%TO.P,C11,1*%
%TO.N,+3.3V*%
X158750000Y-80200000D03*
%TO.P,C11,2*%
%TO.N,GND*%
X158750000Y-78300000D03*
%TD*%
D10*
%TO.P,R5,1*%
%TO.N,+3.3V*%
X144990000Y-79250000D03*
%TO.P,R5,2*%
%TO.N,/I2C2_SDA*%
X146010000Y-79250000D03*
%TD*%
D19*
%TO.P,J1,1,VBUS*%
%TO.N,VBUS*%
X159645000Y-71000000D03*
%TO.P,J1,2,D-*%
%TO.N,/USB_D-*%
X159645000Y-70350000D03*
%TO.P,J1,3,D+*%
%TO.N,/USB_D+*%
X159645000Y-69700000D03*
%TO.P,J1,4,ID*%
%TO.N,unconnected-(J1-Pad4)*%
X159645000Y-69050000D03*
%TO.P,J1,5,GND*%
%TO.N,GND*%
X159645000Y-68400000D03*
D20*
%TO.P,J1,6,Shield*%
%TO.N,N/C*%
X159695000Y-73425000D03*
D21*
X163495000Y-65825000D03*
X163495000Y-73575000D03*
D20*
X159695000Y-65975000D03*
%TD*%
D22*
%TO.P,J2,1,Pin_1*%
%TO.N,+3.3V*%
X141500000Y-59200000D03*
D23*
%TO.P,J2,2,Pin_2*%
%TO.N,/USART1_TX*%
X138960000Y-59200000D03*
%TO.P,J2,3,Pin_3*%
%TO.N,/USART_RX*%
X136420000Y-59200000D03*
%TO.P,J2,4,Pin_4*%
%TO.N,GND*%
X133880000Y-59200000D03*
%TD*%
D24*
%TO.P,C3,1*%
%TO.N,+3.3V*%
X151250000Y-68000000D03*
%TO.P,C3,2*%
%TO.N,GND*%
X151250000Y-68960000D03*
%TD*%
D17*
%TO.P,D1,1,K*%
%TO.N,/PWR_LED_K*%
X161000000Y-78462500D03*
%TO.P,D1,2,A*%
%TO.N,+3.3V*%
X161000000Y-80037500D03*
%TD*%
D25*
%TO.P,Y1,1,1*%
%TO.N,/HSE_IN*%
X134250000Y-69640000D03*
%TO.P,Y1,2,2*%
%TO.N,GND*%
X134250000Y-71840000D03*
%TO.P,Y1,3,3*%
%TO.N,/HSE_OUT*%
X135950000Y-71840000D03*
%TO.P,Y1,4,4*%
%TO.N,GND*%
X135950000Y-69640000D03*
%TD*%
D15*
%TO.P,C6,1*%
%TO.N,+3.3VA*%
X139100000Y-72720000D03*
%TO.P,C6,2*%
%TO.N,GND*%
X139100000Y-71760000D03*
%TD*%
D26*
%TO.P,C10,1*%
%TO.N,VBUS*%
X152800000Y-74000000D03*
%TO.P,C10,2*%
%TO.N,GND*%
X154700000Y-74000000D03*
%TD*%
D15*
%TO.P,C2,1*%
%TO.N,+3.3V*%
X139300000Y-68280000D03*
%TO.P,C2,2*%
%TO.N,GND*%
X139300000Y-67320000D03*
%TD*%
D27*
%TO.P,R4,1*%
%TO.N,+3.3V*%
X143760000Y-79250000D03*
%TO.P,R4,2*%
%TO.N,/I2C2_SCL*%
X142740000Y-79250000D03*
%TD*%
D22*
%TO.P,J4,1,Pin_1*%
%TO.N,+3.3V*%
X139600000Y-87000000D03*
D23*
%TO.P,J4,2,Pin_2*%
%TO.N,/I2C2_SCL*%
X142140000Y-87000000D03*
%TO.P,J4,3,Pin_3*%
%TO.N,/I2C2_SDA*%
X144680000Y-87000000D03*
%TO.P,J4,4,Pin_4*%
%TO.N,GND*%
X147220000Y-87000000D03*
%TD*%
D24*
%TO.P,C13,1*%
%TO.N,/HSE_OUT*%
X137600000Y-71720000D03*
%TO.P,C13,2*%
%TO.N,GND*%
X137600000Y-72680000D03*
%TD*%
D11*
%TO.P,C4,1*%
%TO.N,+3.3V*%
X142270000Y-65000000D03*
%TO.P,C4,2*%
%TO.N,GND*%
X143230000Y-65000000D03*
%TD*%
D26*
%TO.P,C1,1*%
%TO.N,+3.3V*%
X141800000Y-63100000D03*
%TO.P,C1,2*%
%TO.N,GND*%
X143700000Y-63100000D03*
%TD*%
D22*
%TO.P,J3,1,Pin_1*%
%TO.N,+3.3V*%
X155750000Y-59200000D03*
D23*
%TO.P,J3,2,Pin_2*%
%TO.N,/SWDIO*%
X153210000Y-59200000D03*
%TO.P,J3,3,Pin_3*%
%TO.N,/SWCLK*%
X150670000Y-59200000D03*
%TO.P,J3,4,Pin_4*%
%TO.N,GND*%
X148130000Y-59200000D03*
%TD*%
D28*
%TO.P,SW1,*%
%TO.N,*%
X124470000Y-72250000D03*
X124470000Y-64950000D03*
X126680000Y-72250000D03*
X126680000Y-64950000D03*
D29*
%TO.P,SW1,1,A*%
%TO.N,GND*%
X127330000Y-66350000D03*
%TO.P,SW1,2,B*%
%TO.N,/Boot0SW*%
X127330000Y-69350000D03*
%TO.P,SW1,3,C*%
%TO.N,+3.3V*%
X127330000Y-70850000D03*
%TD*%
D12*
%TO.P,C7,1*%
%TO.N,+3.3VA*%
X138730000Y-76000000D03*
%TO.P,C7,2*%
%TO.N,GND*%
X137770000Y-76000000D03*
%TD*%
D30*
%TO.P,U2,1,VBAT*%
%TO.N,+3.3V*%
X141087500Y-68250000D03*
%TO.P,U2,2,PC13*%
%TO.N,unconnected-(U2-Pad2)*%
X141087500Y-68750000D03*
%TO.P,U2,3,PC14*%
%TO.N,unconnected-(U2-Pad3)*%
X141087500Y-69250000D03*
%TO.P,U2,4,PC15*%
%TO.N,unconnected-(U2-Pad4)*%
X141087500Y-69750000D03*
%TO.P,U2,5,PD0*%
%TO.N,/HSE_IN*%
X141087500Y-70250000D03*
%TO.P,U2,6,PD1*%
%TO.N,/HSE_OUT*%
X141087500Y-70750000D03*
%TO.P,U2,7,NRST*%
%TO.N,/nRST*%
X141087500Y-71250000D03*
%TO.P,U2,8,VSSA*%
%TO.N,GND*%
X141087500Y-71750000D03*
%TO.P,U2,9,VDDA*%
%TO.N,+3.3VA*%
X141087500Y-72250000D03*
%TO.P,U2,10,PA0*%
%TO.N,unconnected-(U2-Pad10)*%
X141087500Y-72750000D03*
%TO.P,U2,11,PA1*%
%TO.N,unconnected-(U2-Pad11)*%
X141087500Y-73250000D03*
%TO.P,U2,12,PA2*%
%TO.N,unconnected-(U2-Pad12)*%
X141087500Y-73750000D03*
D31*
%TO.P,U2,13,PA3*%
%TO.N,unconnected-(U2-Pad13)*%
X142500000Y-75162500D03*
%TO.P,U2,14,PA4*%
%TO.N,unconnected-(U2-Pad14)*%
X143000000Y-75162500D03*
%TO.P,U2,15,PA5*%
%TO.N,unconnected-(U2-Pad15)*%
X143500000Y-75162500D03*
%TO.P,U2,16,PA6*%
%TO.N,unconnected-(U2-Pad16)*%
X144000000Y-75162500D03*
%TO.P,U2,17,PA7*%
%TO.N,unconnected-(U2-Pad17)*%
X144500000Y-75162500D03*
%TO.P,U2,18,PB0*%
%TO.N,unconnected-(U2-Pad18)*%
X145000000Y-75162500D03*
%TO.P,U2,19,PB1*%
%TO.N,unconnected-(U2-Pad19)*%
X145500000Y-75162500D03*
%TO.P,U2,20,PB2*%
%TO.N,unconnected-(U2-Pad20)*%
X146000000Y-75162500D03*
%TO.P,U2,21,PB10*%
%TO.N,/I2C2_SCL*%
X146500000Y-75162500D03*
%TO.P,U2,22,PB11*%
%TO.N,/I2C2_SDA*%
X147000000Y-75162500D03*
%TO.P,U2,23,VSS*%
%TO.N,GND*%
X147500000Y-75162500D03*
%TO.P,U2,24,VDD*%
%TO.N,+3.3V*%
X148000000Y-75162500D03*
D30*
%TO.P,U2,25,PB12*%
%TO.N,unconnected-(U2-Pad25)*%
X149412500Y-73750000D03*
%TO.P,U2,26,PB13*%
%TO.N,unconnected-(U2-Pad26)*%
X149412500Y-73250000D03*
%TO.P,U2,27,PB14*%
%TO.N,unconnected-(U2-Pad27)*%
X149412500Y-72750000D03*
%TO.P,U2,28,PB15*%
%TO.N,unconnected-(U2-Pad28)*%
X149412500Y-72250000D03*
%TO.P,U2,29,PA8*%
%TO.N,unconnected-(U2-Pad29)*%
X149412500Y-71750000D03*
%TO.P,U2,30,PA9*%
%TO.N,unconnected-(U2-Pad30)*%
X149412500Y-71250000D03*
%TO.P,U2,31,PA10*%
%TO.N,unconnected-(U2-Pad31)*%
X149412500Y-70750000D03*
%TO.P,U2,32,PA11*%
%TO.N,/USB_D-*%
X149412500Y-70250000D03*
%TO.P,U2,33,PA12*%
%TO.N,/USB_D+*%
X149412500Y-69750000D03*
%TO.P,U2,34,PA13*%
%TO.N,/SWDIO*%
X149412500Y-69250000D03*
%TO.P,U2,35,VSS*%
%TO.N,GND*%
X149412500Y-68750000D03*
%TO.P,U2,36,VDD*%
%TO.N,+3.3V*%
X149412500Y-68250000D03*
D31*
%TO.P,U2,37,PA14*%
%TO.N,/SWCLK*%
X148000000Y-66837500D03*
%TO.P,U2,38,PA15*%
%TO.N,unconnected-(U2-Pad38)*%
X147500000Y-66837500D03*
%TO.P,U2,39,PB3*%
%TO.N,unconnected-(U2-Pad39)*%
X147000000Y-66837500D03*
%TO.P,U2,40,PB4*%
%TO.N,unconnected-(U2-Pad40)*%
X146500000Y-66837500D03*
%TO.P,U2,41,PB5*%
%TO.N,unconnected-(U2-Pad41)*%
X146000000Y-66837500D03*
%TO.P,U2,42,PB6*%
%TO.N,/USART1_TX*%
X145500000Y-66837500D03*
%TO.P,U2,43,PB7*%
%TO.N,/USART_RX*%
X145000000Y-66837500D03*
%TO.P,U2,44,BOOT0*%
%TO.N,/Boot0*%
X144500000Y-66837500D03*
%TO.P,U2,45,PB8*%
%TO.N,unconnected-(U2-Pad45)*%
X144000000Y-66837500D03*
%TO.P,U2,46,PB9*%
%TO.N,unconnected-(U2-Pad46)*%
X143500000Y-66837500D03*
%TO.P,U2,47,VSS*%
%TO.N,GND*%
X143000000Y-66837500D03*
%TO.P,U2,48,VDD*%
%TO.N,+3.3V*%
X142500000Y-66837500D03*
%TD*%
D32*
%TO.P,R3,1*%
%TO.N,+3.3V*%
X153300000Y-68640000D03*
%TO.P,R3,2*%
%TO.N,/USB_D+*%
X153300000Y-69660000D03*
%TD*%
D33*
%TO.N,+3.3V*%
X145050000Y-80500000D03*
X141950000Y-80500000D03*
X147150000Y-80500000D03*
%TO.N,GND*%
X147500000Y-73750000D03*
X137600000Y-73650000D03*
X155650000Y-78500000D03*
X158250000Y-77000000D03*
X132850000Y-71850000D03*
X139300000Y-66450000D03*
X156000000Y-74500000D03*
X127750000Y-65200000D03*
X152100000Y-68950000D03*
X160900000Y-68400000D03*
X143000000Y-68150000D03*
X143750000Y-77150000D03*
X159200000Y-77000000D03*
X137600000Y-68450000D03*
X137000000Y-76000000D03*
X156000000Y-73500000D03*
X137000000Y-77500000D03*
X142550000Y-72100000D03*
X161000000Y-75000000D03*
X156500000Y-78500000D03*
%TD*%
D34*
%TO.N,+3.3V*%
X141087500Y-68250000D02*
X141910050Y-68250000D01*
X142270000Y-65670000D02*
X142270000Y-65000000D01*
X142500000Y-65900000D02*
X142270000Y-65670000D01*
D35*
X137450000Y-67050000D02*
X141400000Y-63100000D01*
X148550000Y-77250000D02*
X148250000Y-77250000D01*
X139600000Y-82500000D02*
X139600000Y-87000000D01*
X149050000Y-80500000D02*
X149050000Y-77750000D01*
D34*
X141910050Y-68250000D02*
X142500000Y-67660050D01*
D35*
X130400000Y-70700000D02*
X130400000Y-69750000D01*
X142270000Y-64470000D02*
X141800000Y-64000000D01*
X145050000Y-79310000D02*
X144990000Y-79250000D01*
X140250000Y-79200000D02*
X140250000Y-77500000D01*
X159050000Y-62500000D02*
X155750000Y-59200000D01*
X141400000Y-63100000D02*
X141800000Y-63100000D01*
X141550000Y-80500000D02*
X140250000Y-79200000D01*
X127330000Y-70850000D02*
X130250000Y-70850000D01*
X141800000Y-64000000D02*
X141800000Y-63100000D01*
X141600000Y-80500000D02*
X139600000Y-82500000D01*
X130400000Y-69750000D02*
X133100000Y-67050000D01*
D34*
X150250000Y-68250000D02*
X150500000Y-68000000D01*
D35*
X158750000Y-84500000D02*
X157050000Y-86200000D01*
X130250000Y-70850000D02*
X130400000Y-70700000D01*
D34*
X142500000Y-66837500D02*
X142500000Y-65900000D01*
D35*
X161000000Y-80037500D02*
X161312500Y-80037500D01*
D34*
X139330000Y-68250000D02*
X139300000Y-68280000D01*
D35*
X145050000Y-80500000D02*
X145050000Y-79310000D01*
D34*
X148250000Y-76750000D02*
X148250000Y-77250000D01*
D35*
X162550000Y-75050000D02*
X161700000Y-74200000D01*
X149050000Y-80500000D02*
X147150000Y-80500000D01*
D34*
X148000000Y-76500000D02*
X148250000Y-76750000D01*
D35*
X149050000Y-84400000D02*
X149050000Y-80500000D01*
X153100000Y-68000000D02*
X153550000Y-68000000D01*
X140250000Y-77500000D02*
X138730000Y-77500000D01*
X140250000Y-79200000D02*
X135150000Y-79200000D01*
X160837500Y-80200000D02*
X161000000Y-80037500D01*
X144990000Y-79250000D02*
X143760000Y-79250000D01*
X143250000Y-57450000D02*
X154000000Y-57450000D01*
D34*
X142500000Y-67660050D02*
X142500000Y-66837500D01*
X141087500Y-68250000D02*
X139330000Y-68250000D01*
D35*
X141500000Y-59200000D02*
X143250000Y-57450000D01*
X154000000Y-57450000D02*
X155750000Y-59200000D01*
X130400000Y-74450000D02*
X130400000Y-70700000D01*
X158750000Y-80200000D02*
X158750000Y-84500000D01*
X161700000Y-74200000D02*
X161700000Y-65150000D01*
X153300000Y-68200000D02*
X153100000Y-68000000D01*
X150850000Y-86200000D02*
X149050000Y-84400000D01*
X151250000Y-68000000D02*
X153100000Y-68000000D01*
X142270000Y-65000000D02*
X142270000Y-64470000D01*
X153300000Y-68640000D02*
X153300000Y-68200000D01*
X153550000Y-68000000D02*
X159050000Y-62500000D01*
X158750000Y-80200000D02*
X160837500Y-80200000D01*
X157050000Y-86200000D02*
X150850000Y-86200000D01*
X149050000Y-77750000D02*
X148550000Y-77250000D01*
X135150000Y-79200000D02*
X130400000Y-74450000D01*
X133100000Y-67050000D02*
X137450000Y-67050000D01*
D34*
X150500000Y-68000000D02*
X151250000Y-68000000D01*
X148000000Y-75162500D02*
X148000000Y-76500000D01*
D35*
X161312500Y-80037500D02*
X162550000Y-78800000D01*
D34*
X149412500Y-68250000D02*
X150250000Y-68250000D01*
D35*
X161700000Y-65150000D02*
X159050000Y-62500000D01*
X141950000Y-80500000D02*
X141550000Y-80500000D01*
X141950000Y-80500000D02*
X141600000Y-80500000D01*
X162550000Y-78800000D02*
X162550000Y-75050000D01*
%TO.N,GND*%
X143230000Y-64420000D02*
X143700000Y-63950000D01*
D34*
X151210000Y-69000000D02*
X151250000Y-68960000D01*
D35*
X127750000Y-65930000D02*
X127750000Y-65200000D01*
D34*
X142200000Y-71750000D02*
X142550000Y-72100000D01*
X150350000Y-68750000D02*
X150600000Y-69000000D01*
D35*
X143700000Y-63950000D02*
X143700000Y-63100000D01*
X137600000Y-69260000D02*
X137600000Y-68500000D01*
X151250000Y-68960000D02*
X152090000Y-68960000D01*
D34*
X150600000Y-69000000D02*
X151210000Y-69000000D01*
D35*
X152090000Y-68960000D02*
X152100000Y-68950000D01*
X142880000Y-77150000D02*
X143750000Y-77150000D01*
X137600000Y-72680000D02*
X137784386Y-72680000D01*
D34*
X161000000Y-75740000D02*
X161000000Y-75000000D01*
D35*
X132860000Y-71840000D02*
X132850000Y-71850000D01*
D34*
X139110000Y-71750000D02*
X139100000Y-71760000D01*
X143000000Y-66837500D02*
X143000000Y-65900000D01*
D35*
X137600000Y-69260000D02*
X136330000Y-69260000D01*
D34*
X141087500Y-71750000D02*
X139110000Y-71750000D01*
D35*
X138704386Y-71760000D02*
X139100000Y-71760000D01*
D34*
X143000000Y-65900000D02*
X143230000Y-65670000D01*
X147500000Y-76550000D02*
X147290000Y-76760000D01*
X141087500Y-71750000D02*
X142200000Y-71750000D01*
X143230000Y-65670000D02*
X143230000Y-65000000D01*
X143000000Y-66837500D02*
X143000000Y-68150000D01*
X149412500Y-68750000D02*
X150350000Y-68750000D01*
D35*
X137600000Y-72680000D02*
X137600000Y-73650000D01*
X137784386Y-72680000D02*
X138704386Y-71760000D01*
X137770000Y-77500000D02*
X137000000Y-77500000D01*
X134250000Y-71840000D02*
X132860000Y-71840000D01*
X139300000Y-67320000D02*
X139300000Y-66450000D01*
D34*
X147290000Y-76760000D02*
X147290000Y-77250000D01*
D35*
X137770000Y-76000000D02*
X137000000Y-76000000D01*
X143230000Y-65000000D02*
X143230000Y-64420000D01*
X136330000Y-69260000D02*
X135950000Y-69640000D01*
D34*
X147500000Y-75162500D02*
X147500000Y-76550000D01*
X147500000Y-75162500D02*
X147500000Y-73750000D01*
X159645000Y-68400000D02*
X160900000Y-68400000D01*
D35*
%TO.N,+3.3VA*%
X138730000Y-76000000D02*
X138730000Y-75145000D01*
X138730000Y-75145000D02*
X139100000Y-74775000D01*
X139100000Y-72720000D02*
X139100000Y-74775000D01*
D34*
X139680000Y-72720000D02*
X139100000Y-72720000D01*
X141087500Y-72250000D02*
X140150000Y-72250000D01*
D35*
X139100000Y-74775000D02*
X140250000Y-75925000D01*
D34*
X140150000Y-72250000D02*
X139680000Y-72720000D01*
%TO.N,/nRST*%
X141920000Y-74380000D02*
X143350000Y-72950000D01*
X143350000Y-71900000D02*
X142700000Y-71250000D01*
X143350000Y-72950000D02*
X143350000Y-71900000D01*
X142700000Y-71250000D02*
X141087500Y-71250000D01*
X141920000Y-77150000D02*
X141920000Y-74380000D01*
%TO.N,/HSE_IN*%
X135000000Y-70700000D02*
X134250000Y-69950000D01*
X134250000Y-69950000D02*
X134250000Y-69640000D01*
X137630000Y-70250000D02*
X137600000Y-70220000D01*
X141087500Y-70250000D02*
X137630000Y-70250000D01*
X137600000Y-70220000D02*
X137120000Y-70700000D01*
X137120000Y-70700000D02*
X135000000Y-70700000D01*
%TO.N,/HSE_OUT*%
X141087500Y-70750000D02*
X138570000Y-70750000D01*
X138570000Y-70750000D02*
X137600000Y-71720000D01*
X137600000Y-71720000D02*
X136070000Y-71720000D01*
X136070000Y-71720000D02*
X135950000Y-71840000D01*
%TO.N,/PWR_LED_K*%
X161000000Y-76760000D02*
X161000000Y-78462500D01*
D36*
%TO.N,/USB_D-*%
X149412500Y-70250000D02*
X158569999Y-70250000D01*
X158669999Y-70350000D02*
X159645000Y-70350000D01*
X158569999Y-70250000D02*
X158669999Y-70350000D01*
%TO.N,/USB_D+*%
X149462499Y-69799999D02*
X158569999Y-69800000D01*
X158669999Y-69700000D02*
X159645000Y-69700000D01*
X149412500Y-69750000D02*
X149462499Y-69799999D01*
X158569999Y-69800000D02*
X158669999Y-69700000D01*
X149412500Y-69750000D02*
X149437499Y-69774999D01*
D34*
%TO.N,/USART1_TX*%
X140560000Y-60800000D02*
X138960000Y-59200000D01*
X145500000Y-66837500D02*
X145500000Y-64814214D01*
X145675000Y-64639214D02*
X145675000Y-62067893D01*
X145500000Y-64814214D02*
X145675000Y-64639214D01*
X144407107Y-60800000D02*
X140560000Y-60800000D01*
X145675000Y-62067893D02*
X144407107Y-60800000D01*
%TO.N,/USART_RX*%
X145000000Y-66837500D02*
X145000000Y-64607107D01*
X138520000Y-61300000D02*
X136420000Y-59200000D01*
X144200000Y-61300000D02*
X138520000Y-61300000D01*
X145175000Y-62275000D02*
X144200000Y-61300000D01*
X145000000Y-64607107D02*
X145175000Y-64432107D01*
X145175000Y-64432107D02*
X145175000Y-62275000D01*
%TO.N,/SWDIO*%
X148100000Y-68950000D02*
X148100000Y-68125000D01*
X149350000Y-66875000D02*
X149350000Y-63060000D01*
X148100000Y-68125000D02*
X149350000Y-66875000D01*
X148400000Y-69250000D02*
X148100000Y-68950000D01*
X149350000Y-63060000D02*
X153210000Y-59200000D01*
X149412500Y-69250000D02*
X148400000Y-69250000D01*
%TO.N,/SWCLK*%
X148000000Y-66837500D02*
X148000000Y-61870000D01*
X148000000Y-61870000D02*
X150670000Y-59200000D01*
%TO.N,/I2C2_SCL*%
X144456497Y-78100000D02*
X146500000Y-76056497D01*
X146500000Y-75162500D02*
X146500000Y-75930329D01*
X143350000Y-78100000D02*
X144456497Y-78100000D01*
X146500000Y-75930329D02*
X146500000Y-75900000D01*
X142750000Y-78700000D02*
X143350000Y-78100000D01*
X142140000Y-87000000D02*
X142140000Y-85660000D01*
X142750000Y-85050000D02*
X142750000Y-78700000D01*
X146500000Y-76056497D02*
X146500000Y-75930329D01*
X142140000Y-85660000D02*
X142750000Y-85050000D01*
%TO.N,/I2C2_SDA*%
X147000000Y-75162500D02*
X147000000Y-76263603D01*
X146000000Y-77263603D02*
X146000000Y-84450000D01*
X147000000Y-76263603D02*
X146000000Y-77263603D01*
X144680000Y-85770000D02*
X144680000Y-87000000D01*
X146000000Y-84450000D02*
X144680000Y-85770000D01*
%TO.N,/Boot0SW*%
X127875000Y-69350000D02*
X131075000Y-66150000D01*
X131075000Y-66150000D02*
X134215000Y-66150000D01*
X127330000Y-69350000D02*
X127875000Y-69350000D01*
%TO.N,/Boot0*%
X144675000Y-62500000D02*
X143975000Y-61800000D01*
X136125000Y-66150000D02*
X135235000Y-66150000D01*
X144675000Y-64225000D02*
X144675000Y-62500000D01*
X143975000Y-61800000D02*
X140475000Y-61800000D01*
X144500000Y-66837500D02*
X144500000Y-64400000D01*
X144500000Y-64400000D02*
X144675000Y-64225000D01*
X140475000Y-61800000D02*
X136125000Y-66150000D01*
%TD*%
%TA.AperFunction,Conductor*%
%TO.N,GND*%
G36*
X156665677Y-72669685D02*
G01*
X156686319Y-72686319D01*
X156963681Y-72963681D01*
X156997166Y-73025004D01*
X157000000Y-73051362D01*
X157000000Y-75500000D01*
X157500000Y-76000000D01*
X159494775Y-76000000D01*
X159561814Y-76019685D01*
X159586943Y-76041048D01*
X159968168Y-76464631D01*
X159998384Y-76527630D01*
X160000000Y-76547583D01*
X160000000Y-78444775D01*
X159980315Y-78511814D01*
X159958952Y-78536943D01*
X159535369Y-78918168D01*
X159472370Y-78948384D01*
X159452417Y-78950000D01*
X155547583Y-78950000D01*
X155480544Y-78930315D01*
X155464631Y-78918168D01*
X155041048Y-78536943D01*
X155004387Y-78477465D01*
X155000000Y-78444775D01*
X155000000Y-75500000D01*
X154500000Y-75000000D01*
X154151362Y-75000000D01*
X154084323Y-74980315D01*
X154063681Y-74963681D01*
X153936319Y-74836319D01*
X153902834Y-74774996D01*
X153900000Y-74748638D01*
X153900000Y-72862000D01*
X153919685Y-72794961D01*
X153949600Y-72762800D01*
X154066934Y-72674800D01*
X154132375Y-72650324D01*
X154141333Y-72650000D01*
X156598638Y-72650000D01*
X156665677Y-72669685D01*
G37*
%TD.AperFunction*%
%TD*%
%TA.AperFunction,Conductor*%
%TO.N,VBUS*%
G36*
X158423084Y-70670185D02*
G01*
X158425322Y-70671715D01*
X158431657Y-70678050D01*
X158451395Y-70688107D01*
X158467985Y-70698274D01*
X158485909Y-70711296D01*
X158506976Y-70718141D01*
X158524951Y-70725586D01*
X158535998Y-70731215D01*
X158536000Y-70731216D01*
X158544695Y-70735646D01*
X158566593Y-70739114D01*
X158585489Y-70743651D01*
X158606566Y-70750499D01*
X158638476Y-70750499D01*
X158638480Y-70750500D01*
X158694112Y-70750500D01*
X158761151Y-70770185D01*
X158781716Y-70786742D01*
X158814181Y-70819151D01*
X158814187Y-70819155D01*
X158822287Y-70827241D01*
X158832758Y-70831870D01*
X158832759Y-70831871D01*
X158916147Y-70868737D01*
X158916149Y-70868738D01*
X158924673Y-70872506D01*
X158950354Y-70875500D01*
X160276000Y-70875500D01*
X160343039Y-70895185D01*
X160388794Y-70947989D01*
X160400000Y-70999500D01*
X160400000Y-71148638D01*
X160380315Y-71215677D01*
X160363681Y-71236319D01*
X160336319Y-71263681D01*
X160274996Y-71297166D01*
X160248638Y-71300000D01*
X153650000Y-71300000D01*
X153500000Y-71450000D01*
X153500000Y-74748638D01*
X153480315Y-74815677D01*
X153463681Y-74836319D01*
X153386319Y-74913681D01*
X153324996Y-74947166D01*
X153298638Y-74950000D01*
X152800000Y-74950000D01*
X152400000Y-75350000D01*
X152400000Y-77948638D01*
X152380315Y-78015677D01*
X152363681Y-78036320D01*
X152286318Y-78113682D01*
X152224994Y-78147166D01*
X152198637Y-78150000D01*
X150701362Y-78150000D01*
X150634323Y-78130315D01*
X150613681Y-78113681D01*
X150536319Y-78036319D01*
X150502834Y-77974996D01*
X150500000Y-77948638D01*
X150500000Y-75151362D01*
X150519685Y-75084323D01*
X150536319Y-75063681D01*
X150613681Y-74986319D01*
X150675004Y-74952834D01*
X150701362Y-74950000D01*
X151750000Y-74950000D01*
X151900000Y-74800000D01*
X151900000Y-70994894D01*
X151919685Y-70927855D01*
X151928734Y-70915519D01*
X152112404Y-70695115D01*
X152170441Y-70656218D01*
X152207661Y-70650500D01*
X158356045Y-70650500D01*
X158423084Y-70670185D01*
G37*
%TD.AperFunction*%
%TD*%
%TA.AperFunction,Conductor*%
%TO.N,+3.3V*%
G36*
X154515677Y-75519685D02*
G01*
X154536319Y-75536319D01*
X154613681Y-75613681D01*
X154647166Y-75675004D01*
X154650000Y-75701362D01*
X154650000Y-79350000D01*
X154800000Y-79500000D01*
X159498638Y-79500000D01*
X159565677Y-79519685D01*
X159586319Y-79536319D01*
X159663681Y-79613681D01*
X159697166Y-79675004D01*
X159700000Y-79701362D01*
X159700000Y-80698638D01*
X159680315Y-80765677D01*
X159663681Y-80786319D01*
X159586319Y-80863681D01*
X159524996Y-80897166D01*
X159498638Y-80900000D01*
X156150000Y-80900000D01*
X156000000Y-81050000D01*
X156000000Y-84148638D01*
X155980315Y-84215677D01*
X155963681Y-84236319D01*
X155886319Y-84313681D01*
X155824996Y-84347166D01*
X155798638Y-84350000D01*
X151751362Y-84350000D01*
X151684323Y-84330315D01*
X151663681Y-84313681D01*
X151586319Y-84236319D01*
X151552834Y-84174996D01*
X151550000Y-84148638D01*
X151550000Y-81101362D01*
X151569685Y-81034323D01*
X151586319Y-81013681D01*
X151663681Y-80936319D01*
X151725004Y-80902834D01*
X151751362Y-80900000D01*
X152600000Y-80900000D01*
X152750000Y-80750000D01*
X152750000Y-75701362D01*
X152769685Y-75634323D01*
X152786319Y-75613681D01*
X152863681Y-75536319D01*
X152925004Y-75502834D01*
X152951362Y-75500000D01*
X154448638Y-75500000D01*
X154515677Y-75519685D01*
G37*
%TD.AperFunction*%
%TD*%
M02*
