M48
; DRILL file {KiCad (6.0.9-0)} date 2022 December 10, Saturday 18:59:29
; FORMAT={-:-/ absolute / metric / decimal}
; #@! TF.CreationDate,2022-12-10T18:59:29+01:00
; #@! TF.GenerationSoftware,Kicad,Pcbnew,(6.0.9-0)
; #@! TF.FileFunction,MixedPlating,1,2
FMAT,2
METRIC
; #@! TA.AperFunction,Plated,PTH,ViaDrill
T1C0.300
; #@! TA.AperFunction,Plated,PTH,ComponentDrill
T2C0.550
; #@! TA.AperFunction,Plated,PTH,ComponentDrill
T3C0.850
; #@! TA.AperFunction,Plated,PTH,ComponentDrill
T4C1.000
; #@! TA.AperFunction,NonPlated,NPTH,ComponentDrill
T5C0.800
; #@! TA.AperFunction,NonPlated,NPTH,ComponentDrill
T6C0.900
; #@! TA.AperFunction,NonPlated,NPTH,ComponentDrill
T7C2.200
%
G90
G05
T1
X127.75Y-65.2
X132.85Y-71.85
X137.0Y-76.0
X137.0Y-77.5
X137.6Y-68.45
X137.6Y-73.65
X139.3Y-66.45
X141.95Y-80.5
X142.55Y-72.1
X143.0Y-68.15
X143.75Y-77.15
X145.05Y-80.5
X147.15Y-80.5
X147.5Y-73.75
X152.1Y-68.95
X155.65Y-78.5
X156.0Y-73.5
X156.0Y-74.5
X156.5Y-78.5
X158.25Y-77.0
X159.2Y-77.0
X160.9Y-68.4
X161.0Y-75.0
T4
X133.88Y-59.2
X136.42Y-59.2
X138.96Y-59.2
X139.6Y-87.0
X141.5Y-59.2
X142.14Y-87.0
X144.68Y-87.0
X147.22Y-87.0
X148.13Y-59.2
X150.67Y-59.2
X153.21Y-59.2
X155.75Y-59.2
T5
X160.745Y-67.2
X160.745Y-72.2
T6
X125.57Y-67.1
X125.57Y-70.1
T7
X127.5Y-60.5
X127.5Y-85.5
X162.5Y-60.5
X162.5Y-85.5
T2
G00X163.17Y-65.825
M15
G01X163.82Y-65.825
M16
G05
G00X163.17Y-73.575
M15
G01X163.82Y-73.575
M16
G05
T3
G00X159.42Y-65.975
M15
G01X159.97Y-65.975
M16
G05
G00X159.42Y-73.425
M15
G01X159.97Y-73.425
M16
G05
T0
M30
